<?xml version="1.0" encoding="utf-8"?>
<svg viewBox="808 114.9000015258789 211.90008544921875 160.300048828125" width="211.90008544921875" height="160.300048828125" xmlns="http://www.w3.org/2000/svg"><g transform="matrix(1, 0, 0, 1, 0, 2.842170943040401e-14)"><path class="st6" d="M988.4,166.1l-2.1-51.2h-72.4h-72.4l-2.1,51.2c0,0-30-6.7-31.4,12.7v61.4l6.4,13.1v21.9h26.1v-17.6h73.5h73.5&#10;&#9;v17.6h26.1v-21.9l6.3-13.1v-61.4C1018.4,159.4,988.4,166.1,988.4,166.1z" style="fill: rgb(254, 220, 125);" transform="matrix(1, 0, 0, 1, 0, 2.842170943040401e-14)"/><path class="st6" d="M832.4,153.8c0,3.6-4.6,6.6-10.3,6.6c-5.7,0-10.3-2.9-10.3-6.6c0-3.6,4.6-6.6,10.3-6.6&#10;&#9;C827.7,147.2,832.4,150.1,832.4,153.8z" style="fill: rgb(254, 220, 125);" transform="matrix(1, 0, 0, 1, 0, 2.842170943040401e-14)"/><path d="M 1015.3 153.800003 A 10.3 6.6 0 0 1 1005 160.400003 A 10.3 6.6 0 0 1 994.7 153.800003 A 10.3 6.6 0 0 1 1005 147.200003 A 10.3 6.6 0 0 1 1015.3 153.800003 Z" class="st6" style="fill: rgb(254, 220, 125);" transform="matrix(1, 0, 0, 1, 0, 2.842170943040401e-14)"/><path d="M 913.9000244140625 212.3000030517578 L 843.2000122070312 212.3000030517578 L 843.2000122070312 217.1999969482422 L 913.9000244140625 217.1999969482422 L 984.5 217.1999969482422 L 984.5 212.3000030517578 Z" class="st5" style="fill: rgb(242, 106, 68);" transform="matrix(1, 0, 0, 1, 0, 2.842170943040401e-14)"/><path d="M 913.9000244140625 223.10000610351562 L 843.2000122070312 223.10000610351562 L 843.2000122070312 228 L 913.9000244140625 228 L 984.5 228 L 984.5 223.10000610351562 Z" class="st5" style="fill: rgb(242, 106, 68);" transform="matrix(1, 0, 0, 1, 0, 2.842170943040401e-14)"/><path d="M 913.9000244140625 233.8000030517578 L 843.2000122070312 233.8000030517578 L 843.2000122070312 238.6999969482422 L 913.9000244140625 238.6999969482422 L 984.5 238.6999969482422 L 984.5 233.8000030517578 Z" class="st5" style="fill: rgb(242, 106, 68);" transform="matrix(1, 0, 0, 1, 0, 2.842170943040401e-14)"/><path d="M 854.499989 191.5 A 16.200001 16.200001 0 0 1 838.299988 207.700001 A 16.200001 16.200001 0 0 1 822.099987 191.5 A 16.200001 16.200001 0 0 1 838.299988 175.299999 A 16.200001 16.200001 0 0 1 854.499989 191.5 Z" class="st4" style="fill: rgb(63, 61, 49);" transform="matrix(1, 0, 0, 1, 0, 2.842170943040401e-14)"/><path d="M 1005.700001 191.5 A 16.200001 16.200001 0 0 1 989.5 207.700001 A 16.200001 16.200001 0 0 1 973.299999 191.5 A 16.200001 16.200001 0 0 1 989.5 175.299999 A 16.200001 16.200001 0 0 1 1005.700001 191.5 Z" class="st4" style="fill: rgb(63, 61, 49);" transform="matrix(1, 0, 0, 1, 0, 2.842170943040401e-14)"/><path d="M 913.900024 123.699997 L 976.799988 123.699997 L 976.799988 166.800003 L 851 166.800003 L 851 123.699997 L 913.900024 123.699997" class="st4" style="fill: rgb(63, 61, 49);" transform="matrix(1, 0, 0, 1, 0, 2.842170943040401e-14)"/></g></svg>